<?xml version="1.0" encoding="UTF-8" standalone="no"?>
<!-- Created with Inkscape (http://www.inkscape.org/) -->

<svg
   xmlns:dc="http://purl.org/dc/elements/1.1/"
   xmlns:cc="http://creativecommons.org/ns#"
   xmlns:rdf="http://www.w3.org/1999/02/22-rdf-syntax-ns#"
   xmlns:svg="http://www.w3.org/2000/svg"
   xmlns="http://www.w3.org/2000/svg"
   xmlns:xlink="http://www.w3.org/1999/xlink"
   xmlns:inkscape="http://www.inkscape.org/namespaces/inkscape"
   version="1.0"
   width="96"
   height="96"
   id="svg2408">
  <defs
     id="defs2410">
    <linearGradient
       id="linearGradient4044">
      <stop
         id="stop4046"
         style="stop-color:#2f5a88;stop-opacity:1"
         offset="0" />
      <stop
         id="stop4048"
         style="stop-color:#346396;stop-opacity:0"
         offset="1" />
    </linearGradient>
    <linearGradient
       id="linearGradient3921">
      <stop
         id="stop3923"
         style="stop-color:#000000;stop-opacity:1"
         offset="0" />
      <stop
         id="stop3925"
         style="stop-color:#000000;stop-opacity:0"
         offset="1" />
    </linearGradient>
    <linearGradient
       id="linearGradient3904">
      <stop
         id="stop3906"
         style="stop-color:#d0e2f1;stop-opacity:1"
         offset="0" />
      <stop
         id="stop3976"
         style="stop-color:#c6dcef;stop-opacity:1"
         offset="0.60882944" />
      <stop
         id="stop3970"
         style="stop-color:#b1cfea;stop-opacity:1"
         offset="0.79731107" />
      <stop
         id="stop3908"
         style="stop-color:#92bce3;stop-opacity:1"
         offset="1" />
    </linearGradient>
    <linearGradient
       id="linearGradient3896">
      <stop
         id="stop3898"
         style="stop-color:#89b7e1;stop-opacity:1"
         offset="0" />
      <stop
         id="stop3974"
         style="stop-color:#85b4df;stop-opacity:1"
         offset="0.57428855" />
      <stop
         id="stop3972"
         style="stop-color:#77a9d9;stop-opacity:1"
         offset="0.75" />
      <stop
         id="stop3900"
         style="stop-color:#679cd2;stop-opacity:1"
         offset="1" />
    </linearGradient>
    <linearGradient
       id="linearGradient3877">
      <stop
         id="stop3879"
         style="stop-color:#5f89b7;stop-opacity:1"
         offset="0" />
      <stop
         id="stop3881"
         style="stop-color:#4071a0;stop-opacity:1"
         offset="1" />
    </linearGradient>
    <linearGradient
       id="linearGradient3867">
      <stop
         id="stop3869"
         style="stop-color:#98bbe2;stop-opacity:1"
         offset="0" />
      <stop
         id="stop3871"
         style="stop-color:#3878bb;stop-opacity:1"
         offset="1" />
    </linearGradient>
    <linearGradient
       x1="45.447727"
       y1="92.539597"
       x2="45.447727"
       y2="7.0165396"
       id="ButtonShadow"
       gradientUnits="userSpaceOnUse"
       gradientTransform="scale(1.0058652,0.994169)">
      <stop
         id="stop3750"
         style="stop-color:#000000;stop-opacity:1"
         offset="0" />
      <stop
         id="stop3752"
         style="stop-color:#000000;stop-opacity:0.58823532"
         offset="1" />
    </linearGradient>
    <linearGradient
       id="linearGradient3737">
      <stop
         id="stop3739"
         style="stop-color:#ffffff;stop-opacity:1"
         offset="0" />
      <stop
         id="stop3741"
         style="stop-color:#ffffff;stop-opacity:0"
         offset="1" />
    </linearGradient>
    <linearGradient
       id="linearGradient3700">
      <stop
         id="stop3702"
         style="stop-color:#e0e0e0;stop-opacity:1"
         offset="0" />
      <stop
         id="stop3704"
         style="stop-color:#ffffff;stop-opacity:1"
         offset="1" />
    </linearGradient>
    <filter
       color-interpolation-filters="sRGB"
       id="filter3174">
      <feGaussianBlur
         id="feGaussianBlur3176"
         stdDeviation="1.71" />
    </filter>
    <linearGradient
       x1="36.357143"
       y1="6"
       x2="36.357143"
       y2="63.893143"
       id="linearGradient3188"
       xlink:href="#linearGradient3737"
       gradientUnits="userSpaceOnUse" />
    <filter
       x="-0.192"
       y="-0.192"
       width="1.3839999"
       height="1.3839999"
       color-interpolation-filters="sRGB"
       id="filter3794">
      <feGaussianBlur
         id="feGaussianBlur3796"
         stdDeviation="5.28" />
    </filter>
    <linearGradient
       x1="48"
       y1="20.220806"
       x2="48"
       y2="138.66119"
       id="linearGradient3613"
       xlink:href="#linearGradient3737"
       gradientUnits="userSpaceOnUse" />
    <radialGradient
       cx="48"
       cy="90.171875"
       r="42"
       fx="48"
       fy="90.171875"
       id="radialGradient3619"
       xlink:href="#linearGradient3737"
       gradientUnits="userSpaceOnUse"
       gradientTransform="matrix(1.1573129,0,0,0.99590774,-7.5510206,0.19713193)" />
    <clipPath
       id="clipPath3613">
      <rect
         width="84"
         height="84"
         rx="6"
         ry="6"
         x="6"
         y="6"
         id="rect3615"
         style="fill:#ffffff;fill-opacity:1;fill-rule:nonzero;stroke:none" />
    </clipPath>
    <linearGradient
       x1="48"
       y1="90"
       x2="48"
       y2="5.9877172"
       id="linearGradient3617"
       xlink:href="#linearGradient3700"
       gradientUnits="userSpaceOnUse"
       gradientTransform="translate(110,0)" />
    <linearGradient
       x1="45.447727"
       y1="92.539597"
       x2="45.447727"
       y2="7.0165396"
       id="ButtonShadow-0"
       gradientUnits="userSpaceOnUse"
       gradientTransform="matrix(1.0058652,0,0,0.994169,100,0)">
      <stop
         id="stop3750-8"
         style="stop-color:#000000;stop-opacity:1"
         offset="0" />
      <stop
         id="stop3752-5"
         style="stop-color:#000000;stop-opacity:0.58823532"
         offset="1" />
    </linearGradient>
    <linearGradient
       x1="32.251034"
       y1="6.1317081"
       x2="32.251034"
       y2="90.238609"
       id="linearGradient3780"
       xlink:href="#ButtonShadow-0"
       gradientUnits="userSpaceOnUse"
       gradientTransform="matrix(1.0238095,0,0,1.0119048,-1.1428571,-98.071429)" />
    <linearGradient
       x1="32.251034"
       y1="6.1317081"
       x2="32.251034"
       y2="90.238609"
       id="linearGradient3772"
       xlink:href="#ButtonShadow-0"
       gradientUnits="userSpaceOnUse"
       gradientTransform="matrix(1.0238095,0,0,1.0119048,-1.1428571,-98.071429)" />
    <linearGradient
       x1="32.251034"
       y1="6.1317081"
       x2="32.251034"
       y2="90.238609"
       id="linearGradient3725"
       xlink:href="#ButtonShadow-0"
       gradientUnits="userSpaceOnUse"
       gradientTransform="matrix(1.0238095,0,0,1.0119048,-1.1428571,-98.071429)" />
    <linearGradient
       x1="32.251034"
       y1="6.1317081"
       x2="32.251034"
       y2="90.238609"
       id="linearGradient3721"
       xlink:href="#ButtonShadow-0"
       gradientUnits="userSpaceOnUse"
       gradientTransform="translate(0,-97)" />
    <linearGradient
       x1="32.251034"
       y1="6.1317081"
       x2="32.251034"
       y2="90.238609"
       id="linearGradient3026"
       xlink:href="#ButtonShadow-0"
       gradientUnits="userSpaceOnUse"
       gradientTransform="matrix(1.0238095,0,0,1.0119048,-1.1428571,-98.071429)" />
    <radialGradient
       cx="45.437672"
       cy="37.516293"
       r="16"
       fx="45.437672"
       fy="37.516293"
       id="radialGradient3873"
       xlink:href="#linearGradient3867"
       gradientUnits="userSpaceOnUse"
       gradientTransform="matrix(2.6228142e-8,1.7777777,-2.6666668,3.9342217e-8,148.04345,-47.000303)" />
    <radialGradient
       cx="48"
       cy="-6.5500002"
       r="42"
       fx="48"
       fy="-6.5500002"
       id="radialGradient3883"
       xlink:href="#linearGradient3877"
       gradientUnits="userSpaceOnUse"
       gradientTransform="matrix(1.9047619,0,0,0.625,-43.428571,12.09375)" />
    <radialGradient
       cx="30.791513"
       cy="55.203083"
       r="30.40625"
       fx="30.791513"
       fy="55.203083"
       id="radialGradient3902"
       xlink:href="#linearGradient3896"
       gradientUnits="userSpaceOnUse"
       gradientTransform="matrix(0,1.6122867,-1.6663814,0,132.20162,-1.5740113)" />
    <radialGradient
       cx="80.272285"
       cy="57.492752"
       r="21"
       fx="80.272285"
       fy="57.492752"
       id="radialGradient3910"
       xlink:href="#linearGradient3904"
       gradientUnits="userSpaceOnUse"
       gradientTransform="matrix(0,2.6037253,-2.4520544,0,198.1082,-168.17716)" />
    <linearGradient
       x1="26"
       y1="48"
       x2="70"
       y2="48"
       id="linearGradient3927"
       xlink:href="#linearGradient3921"
       gradientUnits="userSpaceOnUse"
       gradientTransform="matrix(0,1,-1,0,206,0)" />
    <linearGradient
       x1="48"
       y1="90"
       x2="48"
       y2="5.9877172"
       id="linearGradient3987"
       xlink:href="#linearGradient3700"
       gradientUnits="userSpaceOnUse"
       gradientTransform="matrix(1.0909091,0,0,1.0909091,-4.3636364,-4.3636364)" />
    <linearGradient
       x1="49.922932"
       y1="26.065477"
       x2="55.387222"
       y2="42.517231"
       id="linearGradient4034"
       xlink:href="#linearGradient4044"
       gradientUnits="userSpaceOnUse" />
    <linearGradient
       x1="63.780933"
       y1="63.379192"
       x2="39.036816"
       y2="66.370422"
       id="linearGradient4042"
       xlink:href="#linearGradient4044"
       gradientUnits="userSpaceOnUse" />
    <linearGradient
       x1="25.870298"
       y1="51.93507"
       x2="36.988956"
       y2="30.996477"
       id="linearGradient4050"
       xlink:href="#linearGradient4044"
       gradientUnits="userSpaceOnUse" />
  </defs>
  <metadata
     id="metadata2413">
    <rdf:RDF>
      <cc:Work
         rdf:about="">
        <dc:format>image/svg+xml</dc:format>
        <dc:type
           rdf:resource="http://purl.org/dc/dcmitype/StillImage" />
        <dc:title />
      </cc:Work>
    </rdf:RDF>
  </metadata>
  <g
     id="layer2"
     style="display:none">
    <rect
       width="86"
       height="85"
       rx="6"
       ry="6"
       x="5"
       y="7"
       id="rect3745"
       style="opacity:0.9;fill:url(#ButtonShadow);fill-opacity:1;fill-rule:nonzero;stroke:none;filter:url(#filter3174)" />
  </g>
  <g
     id="layer3">
    <path
       d="m 12,-95.03125 c -5.5110903,0 -10.03125,4.52016 -10.03125,10.03125 l 0,71 c 0,5.5110902 4.5201598,10.03125 10.03125,10.03125 l 72,0 c 5.51109,0 10.03125,-4.5201597 10.03125,-10.03125 l 0,-71 c 0,-5.51109 -4.52016,-10.03125 -10.03125,-10.03125 l -72,0 z"
       transform="scale(1,-1)"
       id="path3786"
       style="opacity:0.07999998;fill:url(#linearGradient3026);fill-opacity:1;fill-rule:nonzero;stroke:none;display:inline" />
    <path
       d="m 12,-94.03125 c -4.971633,0 -9.03125,4.059617 -9.03125,9.03125 l 0,71 c 0,4.9716329 4.0596171,9.03125 9.03125,9.03125 l 72,0 c 4.971633,0 9.03125,-4.059617 9.03125,-9.03125 l 0,-71 c 0,-4.971633 -4.059617,-9.03125 -9.03125,-9.03125 l -72,0 z"
       transform="scale(1,-1)"
       id="path3778"
       style="opacity:0.1;fill:url(#linearGradient3780);fill-opacity:1;fill-rule:nonzero;stroke:none;display:inline" />
    <path
       d="m 12,-93 c -4.4091333,0 -8,3.590867 -8,8 l 0,71 c 0,4.4091333 3.5908667,8 8,8 l 72,0 c 4.409133,0 8,-3.5908667 8,-8 l 0,-71 c 0,-4.409133 -3.590867,-8 -8,-8 l -72,0 z"
       transform="scale(1,-1)"
       id="path3770"
       style="opacity:0.2;fill:url(#linearGradient3772);fill-opacity:1;fill-rule:nonzero;stroke:none;display:inline" />
    <rect
       width="86"
       height="85"
       rx="7"
       ry="7"
       x="5"
       y="-92"
       transform="scale(1,-1)"
       id="rect3723"
       style="opacity:0.3;fill:url(#linearGradient3725);fill-opacity:1;fill-rule:nonzero;stroke:none;display:inline" />
    <rect
       width="84"
       height="84"
       rx="6"
       ry="6"
       x="6"
       y="-91"
       transform="scale(1,-1)"
       id="rect3716"
       style="opacity:0.45;fill:url(#linearGradient3721);fill-opacity:1;fill-rule:nonzero;stroke:none;display:inline" />
  </g>
  <g
     id="layer1">
    <path
       d="m 46,16 c -3.324,0 -6,2.676 -6,6 l 0,5.5 c 2.47995,-0.968744 5.176988,-1.5 8,-1.5 12.150264,0 22,9.849736 22,22 l 20,0 0,-22 0,-10 -44,0 z"
       inkscape:connector-curvature="0"
       id="path4012"
       style="fill:#dca325;fill-opacity:1;stroke:none" />
    <path
       d="m 69.9375,49.5 c -0.230003,3.446727 -1.239296,6.669962 -2.875,9.5 -0.08047,0.139231 -0.166586,0.268969 -0.25,0.40625 C 62.953981,65.756523 55.973611,70 48,70 45.172194,70 42.483679,69.470777 40,68.5 L 40,90 49.15625,90 72,90 72,54 c 0,-1.806203 -0.80762,-3.401835 -2.0625,-4.5 z"
       inkscape:connector-curvature="0"
       id="path3999"
       style="fill:#3b9342;fill-opacity:1;stroke:none" />
    <path
       d="M 6,16 6,19.28125 6,72 34,72 c 2.503387,0 4.629252,-1.518162 5.53125,-3.6875 C 35.06743,66.448341 31.337219,63.151912 28.9375,59 28.840714,58.832543 28.748712,58.670207 28.65625,58.5 26.962857,55.382748 26,51.796958 26,48 26,38.672748 31.806228,30.700737 40,27.5 L 40,22 c 0,-3.324 -2.676,-6 -6,-6 L 6,16 z"
       inkscape:connector-curvature="0"
       id="path3989"
       style="fill:#df2227;fill-opacity:1;stroke:none" />
    <path
       d="M 48,24 C 34.74516,24 24,34.745164 24,48 24,61.254836 34.74516,72 48,72 61.25484,72 72,61.254836 72,48 72,34.745164 61.25484,24 48,24 z"
       inkscape:connector-curvature="0"
       id="rect3982"
       style="fill:url(#linearGradient3987);fill-opacity:1;fill-rule:nonzero;stroke:none" />
    <rect
       width="84"
       height="84"
       rx="6"
       ry="6"
       x="116"
       y="6"
       id="rect2419"
       style="fill:url(#linearGradient3617);fill-opacity:1;fill-rule:nonzero;stroke:none" />
    <path
       d="M 12,6 C 8.676,6 6,8.676 6,12 L 6,19.28125 28.65625,58.5 C 26.962857,55.382748 26,51.796958 26,48 26,35.849736 35.849736,26 48,26 l 42,0 0,-14 C 90,8.676 87.324,6 84,6 L 12,6 z"
       inkscape:connector-curvature="0"
       id="path3824"
       style="fill:url(#radialGradient3883);fill-opacity:1;stroke:none" />
    <path
       d="m 48,26 c 12.150264,0 22,9.849736 22,22 0,4.004278 -1.068124,7.765671 -2.9375,11 -0.08047,0.139231 -0.166586,0.268969 -0.25,0.40625 L 49.15625,90 84,90 c 3.324,0 6,-2.676 6,-6 l 0,-58 -42,0 z"
       inkscape:connector-curvature="0"
       id="path3847"
       style="fill:url(#radialGradient3910);fill-opacity:1;stroke:none" />
    <path
       d="M 6,19.28125 6,84 c 0,3.324 2.676,6 6,6 L 49.15625,90 66.8125,59.40625 C 62.953981,65.756523 55.973611,70 48,70 39.854014,70 32.740409,65.579663 28.9375,59 28.840714,58.832543 28.748712,58.670207 28.65625,58.5 L 6,19.28125 z"
       inkscape:connector-curvature="0"
       id="path3849"
       style="fill:url(#radialGradient3902);fill-opacity:1;stroke:none" />
    <path
       d="m 48,216 66,0 0,-46 -134,0 0,100 68,0 z"
       inkscape:connector-curvature="0"
       id="path3838"
       style="opacity:0.5;fill:#ff0000;stroke:none" />
    <path
       d="m 67.052559,249 -33,57.15768 39.837168,23 67.000003,-116.04741 -86.602543,-50 -34,58.88973 z"
       inkscape:connector-curvature="0"
       id="path3840"
       style="opacity:0.5;fill:#ff0000;stroke:none" />
    <path
       d="m 28.947442,249 -33.0000031,-57.15768 -39.8371679,23 67.000001,116.04741 86.602538,-50 L 75.712814,222 z"
       inkscape:connector-curvature="0"
       id="path3842"
       style="opacity:0.5;fill:#ff0000;stroke:none" />
    <path
       d="m 64,48 a 16,16 0 1 1 -32,0 16,16 0 1 1 32,0 z"
       transform="matrix(1.1875,0,0,1.1875,-9,-9)"
       id="path3822"
       style="color:#000000;fill:url(#radialGradient3873);fill-opacity:1;stroke:none;stroke-width:1;marker:none;visibility:visible;display:inline;overflow:visible;enable-background:accumulate" />
    <path
       d="m 180,48 c 0,-12.150264 -9.84974,-22 -22,-22 -12.15026,0 -22,9.849736 -22,22 0,12.150264 9.84974,22 22,22 12.15026,0 22,-9.849736 22,-22 z m -1,0 c 0,11.59798 -9.40202,21 -21,21 -11.59798,0 -21,-9.40202 -21,-21 0,-11.59798 9.40202,-21 21,-21 11.59798,0 21,9.40202 21,21 z"
       inkscape:connector-curvature="0"
       id="path3912"
       style="opacity:0.1;color:#000000;fill:url(#linearGradient3927);fill-opacity:1;stroke:none;stroke-width:1;marker:none;visibility:visible;display:inline;overflow:visible;enable-background:accumulate" />
    <path
       d="m 48,26 c 6.945511,0 13.124331,3.223003 17.15625,8.25 L 90,28.15625 90,26 48,26 z"
       inkscape:connector-curvature="0"
       id="path3929"
       style="opacity:0.3;fill:url(#linearGradient4034);fill-opacity:1;stroke:none" />
    <path
       d="M 66.8125,59.40625 C 63.504218,64.850954 57.900302,68.749576 51.34375,69.75 l -5.9375,20.25 3.75,0 17.65625,-30.59375 z"
       inkscape:connector-curvature="0"
       id="path3933"
       style="opacity:0.25;fill:url(#linearGradient4042);fill-opacity:1;stroke:none" />
    <path
       d="M 6,16.3125 6,19.28125 28.65625,58.5 C 26.962857,55.382748 26,51.796958 26,48 c 0,-2.872424 0.561262,-5.609468 1.5625,-8.125 L 6,16.3125 z"
       inkscape:connector-curvature="0"
       id="path3935"
       style="fill:url(#linearGradient4050);fill-opacity:1;stroke:none" />
    <path
       d="M 12,90 C 8.676,90 6,87.324 6,84 L 6,82 6,14 6,12 c 0,-0.334721 0.04135,-0.6507 0.09375,-0.96875 0.0487,-0.295596 0.09704,-0.596915 0.1875,-0.875 C 6.29113,10.12587 6.302142,10.09265 6.3125,10.0625 6.411365,9.774729 6.5473802,9.515048 6.6875,9.25 6.8320918,8.976493 7.0031161,8.714385 7.1875,8.46875 7.3718839,8.223115 7.5612765,7.995278 7.78125,7.78125 8.221197,7.353194 8.72416,6.966724 9.28125,6.6875 9.559795,6.547888 9.8547231,6.440553 10.15625,6.34375 9.9000482,6.443972 9.6695391,6.580022 9.4375,6.71875 c -0.00741,0.0044 -0.023866,-0.0045 -0.03125,0 -0.031933,0.0193 -0.062293,0.04251 -0.09375,0.0625 -0.120395,0.0767 -0.2310226,0.163513 -0.34375,0.25 -0.1061728,0.0808 -0.2132809,0.161112 -0.3125,0.25 C 8.4783201,7.442683 8.3087904,7.626638 8.15625,7.8125 8.0486711,7.942755 7.9378561,8.077785 7.84375,8.21875 7.818661,8.25713 7.805304,8.30462 7.78125,8.34375 7.716487,8.446782 7.6510225,8.548267 7.59375,8.65625 7.4927417,8.850956 7.3880752,9.071951 7.3125,9.28125 7.30454,9.30306 7.288911,9.3218 7.28125,9.34375 7.2494249,9.4357 7.2454455,9.530581 7.21875,9.625 7.1884177,9.731618 7.1483606,9.828031 7.125,9.9375 7.0521214,10.279012 7,10.635705 7,11 l 0,2 0,68 0,2 c 0,2.781848 2.2181517,5 5,5 l 2,0 68,0 2,0 c 2.781848,0 5,-2.218152 5,-5 l 0,-2 0,-68 0,-2 C 89,10.635705 88.94788,10.279012 88.875,9.9375 88.83085,9.730607 88.78662,9.539842 88.71875,9.34375 88.71105,9.3218 88.69545,9.30306 88.6875,9.28125 88.62476,9.107511 88.549117,8.913801 88.46875,8.75 88.42717,8.6672 88.38971,8.580046 88.34375,8.5 88.28915,8.40279 88.216976,8.31165 88.15625,8.21875 88.06214,8.077785 87.951329,7.942755 87.84375,7.8125 87.700576,7.63805 87.540609,7.465502 87.375,7.3125 87.36383,7.3023 87.35502,7.29135 87.34375,7.28125 87.205364,7.155694 87.058659,7.046814 86.90625,6.9375 86.803679,6.86435 86.701932,6.784136 86.59375,6.71875 c -0.0074,-0.0045 -0.02384,0.0044 -0.03125,0 -0.232039,-0.138728 -0.462548,-0.274778 -0.71875,-0.375 0.301527,0.0968 0.596455,0.204138 0.875,0.34375 0.55709,0.279224 1.060053,0.665694 1.5,1.09375 0.219973,0.214028 0.409366,0.441865 0.59375,0.6875 0.184384,0.245635 0.355408,0.507743 0.5,0.78125 0.14012,0.265048 0.276135,0.524729 0.375,0.8125 0.01041,0.03078 0.02133,0.06274 0.03125,0.09375 0.09046,0.278085 0.1388,0.579404 0.1875,0.875 C 89.95865,11.3493 90,11.665279 90,12 l 0,2 0,68 0,2 c 0,3.324 -2.676,6 -6,6 l -72,0 z"
       inkscape:connector-curvature="0"
       id="path3615"
       style="opacity:0.2;fill:url(#radialGradient3619);fill-opacity:1;fill-rule:nonzero;stroke:none" />
    <path
       d="M 12,6 C 8.676,6 6,8.676 6,12 l 0,2 0,68 0,2 c 0,0.334721 0.04135,0.6507 0.09375,0.96875 0.0487,0.295596 0.09704,0.596915 0.1875,0.875 0.00988,0.03038 0.020892,0.0636 0.03125,0.09375 0.098865,0.287771 0.2348802,0.547452 0.375,0.8125 0.1445918,0.273507 0.3156161,0.535615 0.5,0.78125 0.1843839,0.245635 0.3737765,0.473472 0.59375,0.6875 0.439947,0.428056 0.94291,0.814526 1.5,1.09375 0.278545,0.139612 0.5734731,0.246947 0.875,0.34375 -0.2562018,-0.100222 -0.4867109,-0.236272 -0.71875,-0.375 -0.00741,-0.0044 -0.023866,0.0045 -0.03125,0 -0.031933,-0.0193 -0.062293,-0.04251 -0.09375,-0.0625 -0.120395,-0.0767 -0.2310226,-0.163513 -0.34375,-0.25 -0.1061728,-0.0808 -0.2132809,-0.161112 -0.3125,-0.25 C 8.4783201,88.557317 8.3087904,88.373362 8.15625,88.1875 8.0486711,88.057245 7.9378561,87.922215 7.84375,87.78125 7.818661,87.74287 7.805304,87.69538 7.78125,87.65625 7.716487,87.553218 7.6510225,87.451733 7.59375,87.34375 7.4927417,87.149044 7.3880752,86.928049 7.3125,86.71875 7.30454,86.69694 7.288911,86.6782 7.28125,86.65625 7.2494249,86.5643 7.2454455,86.469419 7.21875,86.375 7.1884177,86.268382 7.1483606,86.171969 7.125,86.0625 7.0521214,85.720988 7,85.364295 7,85 L 7,83 7,15 7,13 C 7,10.218152 9.2181517,8 12,8 l 2,0 68,0 2,0 c 2.781848,0 5,2.218152 5,5 l 0,2 0,68 0,2 c 0,0.364295 -0.05212,0.720988 -0.125,1.0625 -0.04415,0.206893 -0.08838,0.397658 -0.15625,0.59375 -0.0077,0.02195 -0.0233,0.04069 -0.03125,0.0625 -0.06274,0.173739 -0.138383,0.367449 -0.21875,0.53125 -0.04158,0.0828 -0.07904,0.169954 -0.125,0.25 -0.0546,0.09721 -0.126774,0.18835 -0.1875,0.28125 -0.09411,0.140965 -0.204921,0.275995 -0.3125,0.40625 -0.143174,0.17445 -0.303141,0.346998 -0.46875,0.5 -0.01117,0.0102 -0.01998,0.02115 -0.03125,0.03125 -0.138386,0.125556 -0.285091,0.234436 -0.4375,0.34375 -0.102571,0.07315 -0.204318,0.153364 -0.3125,0.21875 -0.0074,0.0045 -0.02384,-0.0044 -0.03125,0 -0.232039,0.138728 -0.462548,0.274778 -0.71875,0.375 0.301527,-0.0968 0.596455,-0.204138 0.875,-0.34375 0.55709,-0.279224 1.060053,-0.665694 1.5,-1.09375 0.219973,-0.214028 0.409366,-0.441865 0.59375,-0.6875 0.184384,-0.245635 0.355408,-0.507743 0.5,-0.78125 0.14012,-0.265048 0.276135,-0.524729 0.375,-0.8125 0.01041,-0.03078 0.02133,-0.06274 0.03125,-0.09375 0.09046,-0.278085 0.1388,-0.579404 0.1875,-0.875 C 89.95865,84.6507 90,84.334721 90,84 l 0,-2 0,-68 0,-2 C 90,8.676 87.324,6 84,6 L 12,6 z"
       inkscape:connector-curvature="0"
       id="rect3728"
       style="opacity:0.25;fill:url(#linearGradient3188);fill-opacity:1;fill-rule:nonzero;stroke:none" />
  </g>
  <g
     id="layer5"
     style="display:none">
    <rect
       width="66"
       height="66"
       rx="12"
       ry="12"
       x="15"
       y="15"
       clip-path="url(#clipPath3613)"
       id="rect3171"
       style="opacity:0.1;fill:url(#linearGradient3613);fill-opacity:1;fill-rule:nonzero;stroke:#ffffff;stroke-width:0.5;stroke-linecap:round;stroke-linejoin:miter;stroke-miterlimit:4;stroke-opacity:1;stroke-dasharray:none;stroke-dashoffset:0;filter:url(#filter3794)" />
  </g>
</svg>
